<svg xmlns="http://www.w3.org/2000/svg" viewBox="0 0 524 71.09"><defs><style>.cls-1{fill:#f30;}.cls-2{fill:#336;}</style></defs><g id="Layer_2" data-name="Layer 2"><g id="Layer_1-2" data-name="Layer 1"><path class="cls-1" d="M90,1.9a8.66,8.66,0,0,1-.64.6,11.54,11.54,0,0,0-1.47,2.11,20.1,20.1,0,0,0-1.82,4,39.49,39.49,0,0,0-1.43,6.61A64.48,64.48,0,0,0,84,24.73V45.66a69.86,69.86,0,0,0,.59,9.47,31.88,31.88,0,0,0,1.48,6.61,29.79,29.79,0,0,0,1.77,3.95,6.58,6.58,0,0,0,1.57,2.1l.59.61v1.7H60V68.4l.59-.6A15.43,15.43,0,0,0,62,65.7a23.36,23.36,0,0,0,1.87-4,36.64,36.64,0,0,0,1.47-6.6A64.34,64.34,0,0,0,66,45.6V13.67a1.27,1.27,0,0,0-2.44-.49L39,71.09l-26.7-55.2a.68.68,0,0,0-1.29.3l.09,29.41q0,16.2,5.13,22l.78.7v1.8H0V68.3a4.19,4.19,0,0,0,.64-.51,11,11,0,0,0,1.47-2.1,20.1,20.1,0,0,0,1.82-4,39.49,39.49,0,0,0,1.43-6.61A65.36,65.36,0,0,0,6,45.46V24.63Q6,8.52.79,2.6L0,1.9V.1L38.45,0,52.22,28,64.23.1H90Z"/><path class="cls-1" d="M135.65,46.28a25.85,25.85,0,0,1-8.35,18,23.4,23.4,0,0,1-17.9,6.6,23,23,0,0,1-17-8.62,25.93,25.93,0,0,1-6.15-18.92,25.81,25.81,0,0,1,8.35-18,23.89,23.89,0,0,1,34.92,2.09A25.84,25.84,0,0,1,135.65,46.28ZM97.9,63.14q2,1.73,7.19-1.86a44.22,44.22,0,0,0,10.12-10.19,54.61,54.61,0,0,0,8.46-15.19q2.61-7.54.24-9.6-2-1.74-7.2,1.93a47.31,47.31,0,0,0-10.19,10.18,54.68,54.68,0,0,0-8.38,15.13C96.39,58.57,96.32,61.77,97.9,63.14Z"/><path class="cls-2" d="M158.3,36q2.7,1.2,4.1,1.9c.93.47,2.22,1.13,3.85,2a31.35,31.35,0,0,1,3.8,2.3c.9.67,1.95,1.5,3.15,2.5a12.62,12.62,0,0,1,2.7,2.95,16.79,16.79,0,0,1,1.55,3.3,11.61,11.61,0,0,1,.65,3.85,13.84,13.84,0,0,1-6,11.85A23.75,23.75,0,0,1,157.8,71a31.57,31.57,0,0,1-13.6-2.65q-5.59-2.66-6.7-6.25-1.2-3.8.85-5.75a6.27,6.27,0,0,1,4.35-2,6.39,6.39,0,0,1,4.2,1.4,10.74,10.74,0,0,1,2.75,3.45q1,2.05,2.2,4a10.74,10.74,0,0,0,3.25,3.45,8.73,8.73,0,0,0,5.1,1.45,8.17,8.17,0,0,0,5.1-1.4,4.35,4.35,0,0,0,1.8-3.6,4.88,4.88,0,0,0-.75-2.55,11.19,11.19,0,0,0-1.65-2.15,13.46,13.46,0,0,0-2.85-2c-1.3-.73-2.38-1.32-3.25-1.75s-2.13-1-3.8-1.85q-3.3-1.6-5.1-2.5a52.41,52.41,0,0,1-4.6-2.7,20.27,20.27,0,0,1-4.25-3.45A17.9,17.9,0,0,1,138,39.67a10.81,10.81,0,0,1-.92-4,15.61,15.61,0,0,1,1.69-8,12.67,12.67,0,0,1,4.55-4.9,22.63,22.63,0,0,1,6.05-2.6,25.85,25.85,0,0,1,6.7-.85,37.57,37.57,0,0,1,7.4.95A68.41,68.41,0,0,1,171,22.2l3,.9v16h-1.9a16.08,16.08,0,0,0-1-1.65q-.71-1.05-2.85-3.7a37.41,37.41,0,0,0-4.5-4.7,25.57,25.57,0,0,0-5.95-3.75,16.78,16.78,0,0,0-7.2-1.7,6.66,6.66,0,0,0-3.25.8,2.43,2.43,0,0,0-1.45,2.2,4,4,0,0,0,.9,2.4,11,11,0,0,0,3,2.5c1.4.87,2.65,1.58,3.75,2.15S156.23,35,158.3,36Z"/><path class="cls-2" d="M201.3,36q2.7,1.2,4.1,1.9c.93.47,2.22,1.13,3.85,2a31.35,31.35,0,0,1,3.8,2.3c.9.67,1.95,1.5,3.15,2.5a12.62,12.62,0,0,1,2.7,2.95,16.79,16.79,0,0,1,1.55,3.3,11.61,11.61,0,0,1,.65,3.85,13.84,13.84,0,0,1-6,11.85A23.75,23.75,0,0,1,200.8,71a31.57,31.57,0,0,1-13.6-2.65q-5.59-2.66-6.7-6.25-1.2-3.8.85-5.75a6.27,6.27,0,0,1,4.35-2,6.39,6.39,0,0,1,4.2,1.4,10.74,10.74,0,0,1,2.75,3.45q1,2.05,2.2,4a10.74,10.74,0,0,0,3.25,3.45,8.73,8.73,0,0,0,5.1,1.45,8.17,8.17,0,0,0,5.1-1.4,4.35,4.35,0,0,0,1.8-3.6,4.88,4.88,0,0,0-.75-2.55,11.19,11.19,0,0,0-1.65-2.15,13.46,13.46,0,0,0-2.85-2c-1.3-.73-2.38-1.32-3.25-1.75s-2.13-1-3.8-1.85q-3.3-1.6-5.1-2.5a52.41,52.41,0,0,1-4.6-2.7,20.27,20.27,0,0,1-4.25-3.45A17.9,17.9,0,0,1,181,39.67a10.81,10.81,0,0,1-.92-4,15.61,15.61,0,0,1,1.69-8,12.67,12.67,0,0,1,4.55-4.9,22.63,22.63,0,0,1,6.05-2.6,25.85,25.85,0,0,1,6.7-.85,37.57,37.57,0,0,1,7.4.95A68.41,68.41,0,0,1,214,22.2l3,.9v16h-1.9a16.08,16.08,0,0,0-1-1.65q-.71-1.05-2.85-3.7a37.41,37.41,0,0,0-4.5-4.7,25.57,25.57,0,0,0-5.95-3.75,16.78,16.78,0,0,0-7.2-1.7,6.66,6.66,0,0,0-3.25.8,2.43,2.43,0,0,0-1.45,2.2,4,4,0,0,0,.9,2.4,11,11,0,0,0,3,2.5c1.4.87,2.65,1.58,3.75,2.15S199.23,35,201.3,36Z"/><path class="cls-2" d="M275.22,70.1h-17.8a5.38,5.38,0,0,1-2.6-.7,9.68,9.68,0,0,1-1.9-1.25c-.4-.37-1-1-1.9-2a2.09,2.09,0,0,0-3.2-.2,3.29,3.29,0,0,1-.7.7l-.8.65q-.21.15-.75.6a9.35,9.35,0,0,1-.8.6l-.85.5a7.66,7.66,0,0,1-1,.5l-1,.35a8.77,8.77,0,0,1-1.2.3l-1.3.2a11.8,11.8,0,0,1-1.5.1q-6.9,0-10.95-3.65a12.12,12.12,0,0,1-4.05-9.45,13.12,13.12,0,0,1,2.25-7.65,16.8,16.8,0,0,1,5.75-5.2A69.19,69.19,0,0,1,238,41.1q3.6-1.5,6.9-3.2a12.22,12.22,0,0,0,4.6-3.6q2.89-4.3,1.25-8.25a6.18,6.18,0,0,0-6.25-3.95,9.64,9.64,0,0,0-2.2.25,12.82,12.82,0,0,0-2.35.8,3.55,3.55,0,0,0-1.85,2,5.39,5.39,0,0,0-.2,3.3Q239,34,237,37.15t-6.55,3.15a6.23,6.23,0,0,1-4.75-1.85,6.42,6.42,0,0,1-1.85-4.3,14.85,14.85,0,0,1,.6-4.85q3.5-10,18.6-10a30.65,30.65,0,0,1,16.8,4.45,15,15,0,0,1,7.4,12.55q.79,14.81,1.1,19.7.3,6.9,6.3,11.9l.5.4ZM250,58V37.9c-.27.19-.65.5-1.15.9s-1.4,1.25-2.7,2.54a37.41,37.41,0,0,0-3.45,4,22.13,22.13,0,0,0-2.7,4.94,15,15,0,0,0-1.2,5.66c0,2.73.65,4.7,1.95,5.89a6.38,6.38,0,0,0,4.45,1.81,4.19,4.19,0,0,0,3.4-1.81A6.08,6.08,0,0,0,250,58Z"/><path class="cls-2" d="M296.9,50.91a26.6,26.6,0,0,0,1.55,9,25.33,25.33,0,0,0,3.05,6.36l1.5,2V70.1H275V68.3c.13-.13.34-.33.64-.6a12.73,12.73,0,0,0,1.47-2,21.06,21.06,0,0,0,1.82-3.35,25.5,25.5,0,0,0,1.43-4.85A31.08,31.08,0,0,0,281,51.1V46.8a46.77,46.77,0,0,0-.25-4.75c-.18-1.57-.46-3.3-.87-5.2a12.1,12.1,0,0,0-1.88-4.6,3.66,3.66,0,0,0-3-1.75V27.4a10.79,10.79,0,0,0,1.58-.15c.64-.1,1.84-.33,3.61-.7a34.33,34.33,0,0,0,4.93-1.4,24.07,24.07,0,0,0,4.73-2.45,13,13,0,0,0,3.76-3.6H297Zm-8.48-34.72a8.15,8.15,0,0,1-5.95-2.29A7.9,7.9,0,0,1,280.12,8a7.41,7.41,0,0,1,2.35-5.69A8.34,8.34,0,0,1,288.42.09a7.79,7.79,0,0,1,5.75,2.15A7.79,7.79,0,0,1,296.32,8a8.26,8.26,0,0,1-2.15,5.95A7.59,7.59,0,0,1,288.42,16.19Z"/><path class="cls-2" d="M363.6,68l.4.2v1.9H334V68.5l.1-.2a8.76,8.76,0,0,0,1.24-6.3A47.67,47.67,0,0,0,332,52.45a41.86,41.86,0,0,0-4.21-8,1.67,1.67,0,0,0-1.77-.65,1.25,1.25,0,0,0-1,1.35v5.9a26.8,26.8,0,0,0,.74,6.4,22.14,22.14,0,0,0,1.75,4.9,23.55,23.55,0,0,0,2.07,3.3,12.38,12.38,0,0,0,1.8,2l.64.6v1.8H303V68.3l.64-.65a16.35,16.35,0,0,0,1.47-2,20.33,20.33,0,0,0,1.82-3.4,26.93,26.93,0,0,0,1.43-4.85,29.91,29.91,0,0,0,.64-6.3l-.1-21a21.93,21.93,0,0,0,0-3.05q-.09-1.85-.15-3.9a22,22,0,0,0-.49-4.15,28.62,28.62,0,0,0-1-3.75,6.52,6.52,0,0,0-1.67-2.65,3.66,3.66,0,0,0-2.56-1V8.41a10.21,10.21,0,0,0,1.54-.15c.63-.1,1.81-.33,3.53-.7a32.58,32.58,0,0,0,4.83-1.4,23.24,23.24,0,0,0,4.63-2.46A12.54,12.54,0,0,0,321.21.1h3.38q-.09,35.05,0,38.95a1.37,1.37,0,0,0,2.39,1l12.14-10.72q8.76-8.71,14.33-9.81a7.76,7.76,0,0,1,4.78.45,5.18,5.18,0,0,1,2.83,2.8,10.2,10.2,0,0,1,.75,3.86,5.61,5.61,0,0,1-1.44,3.7,7.19,7.19,0,0,1-3.83,2.31,6.52,6.52,0,0,1-4-.3,13.64,13.64,0,0,1-3.34-1.81,5,5,0,0,0-3.28-.95,6.88,6.88,0,0,0-4.18,1.95L340,33.15l10.55,21.23Q356.54,64.49,363.6,68Z"/><path class="cls-2" d="M401.47,26.84a25.89,25.89,0,0,1,8.4,18,23.39,23.39,0,0,1-6.45,17.94,23,23,0,0,1-17.5,7.45,25.9,25.9,0,0,1-18.45-7.45,25.74,25.74,0,0,1-8.4-17.94,23.3,23.3,0,0,1,6.5-18,23.19,23.19,0,0,1,17.55-7.44A25.84,25.84,0,0,1,401.47,26.84ZM390.12,66.6q2.6-.41,3.2-6.7A44.47,44.47,0,0,0,392,45.59a54.87,54.87,0,0,0-6.2-16.25q-4.11-6.84-7.2-6.35-2.61.41-3.15,6.75a47.15,47.15,0,0,0,1.25,14.35,54.38,54.38,0,0,0,6.2,16.15Q387,67.1,390.12,66.6Z"/><path class="cls-2" d="M484.44,53.88q4.59,12,9.66,14a3.3,3.3,0,0,0,.9.2v2H462V68.2l.79-.5a8.47,8.47,0,0,0,1.53-1.45,8.82,8.82,0,0,0,1.62-2.65,11.37,11.37,0,0,0,.59-4.1,15.31,15.31,0,0,0-1.18-5.6l-1.77-4.8H440.52c-.72,1.87-1.28,3.3-1.67,4.3a18,18,0,0,0-1,5.6,11.45,11.45,0,0,0,.64,4.2,15.56,15.56,0,0,0,1.43,2.8,8.35,8.35,0,0,0,1.38,1.7l.69.5v1.9H424V68.2l.54-.3A11,11,0,0,0,426,66.7a16,16,0,0,0,2.16-2.55,44.7,44.7,0,0,0,2.7-4.65,58,58,0,0,0,3.09-7.2q2.85-7.5,15.7-43.7a18.93,18.93,0,0,0-2.26-4.85c-.78-1.1-1.37-1.65-1.76-1.65H445V.1h19.62Q481.86,46.66,484.44,53.88ZM441.22,46.1h21.69c-1.13-3.32-8-24.11-10.41-30.06a.56.56,0,0,0-1.05,0Z"/><path class="cls-2" d="M524,1.9a7.49,7.49,0,0,0-.68.55,11.26,11.26,0,0,0-1.4,2.1,24.68,24.68,0,0,0-1.84,4.05,36.15,36.15,0,0,0-1.45,6.55A65.55,65.55,0,0,0,518,24.7V45.6a64.09,64.09,0,0,0,.64,9.55,34.33,34.33,0,0,0,1.52,6.6,30.39,30.39,0,0,0,1.77,4,8.06,8.06,0,0,0,1.48,2.1l.59.5v1.8H494V68.3a4.19,4.19,0,0,0,.64-.51,11,11,0,0,0,1.47-2.1,20.1,20.1,0,0,0,1.82-4,39.49,39.49,0,0,0,1.43-6.61,65.36,65.36,0,0,0,.64-9.62V24.63q0-16.11-5.21-22L494,1.9V.1h30Z"/></g></g></svg>