<svg xmlns="http://www.w3.org/2000/svg" viewBox="0 0 581 71.09"><defs><style>.cls-1{fill:#f30;}.cls-2{fill:#006;}</style></defs><g id="Layer_2" data-name="Layer 2"><g id="Layer_1-2" data-name="Layer 1"><path class="cls-1" d="M90,1.9a8.66,8.66,0,0,1-.64.6,11.54,11.54,0,0,0-1.47,2.11,20.1,20.1,0,0,0-1.82,4,39.49,39.49,0,0,0-1.43,6.61A64.48,64.48,0,0,0,84,24.73V45.66a69.86,69.86,0,0,0,.59,9.47,32,32,0,0,0,1.48,6.61,30.39,30.39,0,0,0,1.77,3.95,6.58,6.58,0,0,0,1.57,2.1l.59.61v1.7H60V68.4l.59-.6A15.43,15.43,0,0,0,62,65.7a23.72,23.72,0,0,0,1.87-4,37.05,37.05,0,0,0,1.47-6.6A64.44,64.44,0,0,0,66,45.6V13.67a1.27,1.27,0,0,0-2.44-.49L39,71.09l-26.7-55.2a.68.68,0,0,0-1.29.3l.09,29.41q0,16.2,5.13,22l.78.7v1.8H0V68.29a3.41,3.41,0,0,0,.64-.5,11,11,0,0,0,1.47-2.1,20.1,20.1,0,0,0,1.82-4,39.49,39.49,0,0,0,1.43-6.61A65.36,65.36,0,0,0,6,45.46V24.63Q6,8.52.79,2.6L0,1.9V.1L38.45,0,52.22,28,64.23.1H90Z"/><path class="cls-1" d="M142.73,46.28a25.85,25.85,0,0,1-8.35,18,23.42,23.42,0,0,1-17.9,6.59,23,23,0,0,1-17-8.62,25.85,25.85,0,0,1-6.15-18.92,25.77,25.77,0,0,1,8.35-18,23.86,23.86,0,0,1,34.91,2.1A25.8,25.8,0,0,1,142.73,46.28ZM105,63.14c1.32,1.15,3.72.54,7.19-1.86a44,44,0,0,0,10.12-10.19,54.91,54.91,0,0,0,8.47-15.19q2.61-7.54.23-9.6-2-1.73-7.19,1.93a47.09,47.09,0,0,0-10.19,10.18,54.73,54.73,0,0,0-8.39,15.13Q102.61,61.09,105,63.14Z"/><path class="cls-2" d="M169.3,36q2.7,1.2,4.1,1.9c.93.47,2.22,1.13,3.85,2a31.35,31.35,0,0,1,3.8,2.3c.9.67,1.95,1.5,3.15,2.5a12.62,12.62,0,0,1,2.7,2.95,16.79,16.79,0,0,1,1.55,3.3,11.61,11.61,0,0,1,.65,3.85,13.84,13.84,0,0,1-6,11.85A23.75,23.75,0,0,1,168.8,71a31.57,31.57,0,0,1-13.6-2.65q-5.59-2.66-6.7-6.25-1.2-3.8.85-5.75a6.27,6.27,0,0,1,4.35-2,6.39,6.39,0,0,1,4.2,1.4,10.74,10.74,0,0,1,2.75,3.45q1,2.05,2.2,4a10.74,10.74,0,0,0,3.25,3.45,8.73,8.73,0,0,0,5.1,1.45,8.17,8.17,0,0,0,5.1-1.4,4.35,4.35,0,0,0,1.8-3.6,4.88,4.88,0,0,0-.75-2.55,11.19,11.19,0,0,0-1.65-2.15,13.46,13.46,0,0,0-2.85-2c-1.3-.73-2.38-1.32-3.25-1.75s-2.13-1-3.8-1.85q-3.3-1.6-5.1-2.5a52.41,52.41,0,0,1-4.6-2.7,20.27,20.27,0,0,1-4.25-3.45A18,18,0,0,1,149,39.66a10.52,10.52,0,0,1-.92-4,15.61,15.61,0,0,1,1.69-8,12.67,12.67,0,0,1,4.55-4.9,22.63,22.63,0,0,1,6.05-2.6,25.85,25.85,0,0,1,6.7-.85,37.57,37.57,0,0,1,7.4.95A68.41,68.41,0,0,1,182,22.2l3,.9v16h-1.9a16.08,16.08,0,0,0-1-1.65q-.71-1.05-2.85-3.7a37.41,37.41,0,0,0-4.5-4.7,25.57,25.57,0,0,0-5.95-3.75,16.78,16.78,0,0,0-7.2-1.7,6.66,6.66,0,0,0-3.25.8,2.43,2.43,0,0,0-1.45,2.2,4,4,0,0,0,.9,2.4,11,11,0,0,0,3,2.5c1.4.87,2.65,1.58,3.75,2.15S167.23,35,169.3,36Z"/><path class="cls-2" d="M216.3,36q2.7,1.2,4.1,1.9c.93.47,2.22,1.13,3.85,2a31.35,31.35,0,0,1,3.8,2.3c.9.67,1.95,1.5,3.15,2.5a12.62,12.62,0,0,1,2.7,2.95,16.79,16.79,0,0,1,1.55,3.3,11.61,11.61,0,0,1,.65,3.85,13.84,13.84,0,0,1-6,11.85A23.75,23.75,0,0,1,215.8,71a31.57,31.57,0,0,1-13.6-2.65q-5.59-2.66-6.7-6.25-1.2-3.8.85-5.75a6.27,6.27,0,0,1,4.35-2,6.39,6.39,0,0,1,4.2,1.4,10.74,10.74,0,0,1,2.75,3.45q1,2.05,2.2,4a10.74,10.74,0,0,0,3.25,3.45,8.73,8.73,0,0,0,5.1,1.45,8.17,8.17,0,0,0,5.1-1.4,4.35,4.35,0,0,0,1.8-3.6,4.88,4.88,0,0,0-.75-2.55,11.19,11.19,0,0,0-1.65-2.15,13.46,13.46,0,0,0-2.85-2c-1.3-.73-2.38-1.32-3.25-1.75s-2.13-1-3.8-1.85q-3.3-1.6-5.1-2.5a52.41,52.41,0,0,1-4.6-2.7,20.27,20.27,0,0,1-4.25-3.45A18,18,0,0,1,196,39.66a10.52,10.52,0,0,1-.92-4,15.61,15.61,0,0,1,1.69-8,12.67,12.67,0,0,1,4.55-4.9,22.63,22.63,0,0,1,6.05-2.6,25.85,25.85,0,0,1,6.7-.85,37.57,37.57,0,0,1,7.4.95A68.41,68.41,0,0,1,229,22.2l3,.9v16h-1.9a16.08,16.08,0,0,0-1-1.65q-.71-1.05-2.85-3.7a37.41,37.41,0,0,0-4.5-4.7,25.57,25.57,0,0,0-5.95-3.75,16.78,16.78,0,0,0-7.2-1.7,6.66,6.66,0,0,0-3.25.8,2.43,2.43,0,0,0-1.45,2.2,4,4,0,0,0,.9,2.4,11,11,0,0,0,3,2.5c1.4.87,2.65,1.58,3.75,2.15S214.23,35,216.3,36Z"/><path class="cls-2" d="M293.3,70.1H275.5a5.4,5.4,0,0,1-2.6-.7,10,10,0,0,1-1.9-1.25c-.4-.37-1-1-1.9-2a2.09,2.09,0,0,0-3.2-.2,3.29,3.29,0,0,1-.7.7c-.4.33-.66.55-.8.65l-.75.6a7,7,0,0,1-.8.6l-.85.5a7.08,7.08,0,0,1-1,.5l-1,.35a8.77,8.77,0,0,1-1.2.3l-1.3.2a11.55,11.55,0,0,1-1.5.1q-6.9,0-10.95-3.65A12.12,12.12,0,0,1,241,57.4a13.12,13.12,0,0,1,2.25-7.65,16.89,16.89,0,0,1,5.75-5.2,69.19,69.19,0,0,1,7.1-3.45q3.6-1.5,6.9-3.2a12.14,12.14,0,0,0,4.6-3.6q2.91-4.3,1.25-8.25T262.6,22.1a9.71,9.71,0,0,0-2.2.25,13.07,13.07,0,0,0-2.35.8,3.58,3.58,0,0,0-1.85,2,5.47,5.47,0,0,0-.2,3.3q1.11,5.6-.95,8.75T248.5,40.3a6.24,6.24,0,0,1-4.75-1.85,6.47,6.47,0,0,1-1.85-4.3,15.13,15.13,0,0,1,.6-4.85q3.5-10,18.6-10a30.62,30.62,0,0,1,16.8,4.45,15,15,0,0,1,7.4,12.55q.79,14.81,1.1,19.7.3,6.9,6.3,11.9l.5.4ZM268,58V37.9c-.27.2-.65.5-1.15.9s-1.4,1.25-2.7,2.55a36.37,36.37,0,0,0-3.45,3.95,22,22,0,0,0-2.7,5,15,15,0,0,0-1.2,5.65q0,4.1,1.95,5.9a6.37,6.37,0,0,0,4.45,1.8,4.18,4.18,0,0,0,3.4-1.8A6.12,6.12,0,0,0,268,58Z"/><path class="cls-2" d="M317.9,50.91a26.6,26.6,0,0,0,1.55,9,25.33,25.33,0,0,0,3.05,6.36l1.5,2V70.1H296V68.3c.13-.13.34-.33.64-.6a12.73,12.73,0,0,0,1.47-2,21.06,21.06,0,0,0,1.82-3.35,25.5,25.5,0,0,0,1.43-4.85A31.08,31.08,0,0,0,302,51.1V46.8a46.77,46.77,0,0,0-.25-4.75c-.18-1.57-.46-3.3-.87-5.2a12.1,12.1,0,0,0-1.88-4.6,3.66,3.66,0,0,0-3-1.75V27.4a10.79,10.79,0,0,0,1.58-.15c.64-.1,1.84-.33,3.61-.7a34.33,34.33,0,0,0,4.93-1.4,24.07,24.07,0,0,0,4.73-2.45,13,13,0,0,0,3.76-3.6H318ZM309.5,16.2a8.18,8.18,0,0,1-5.95-2.3A7.9,7.9,0,0,1,301.2,8a7.42,7.42,0,0,1,2.35-5.7A8.35,8.35,0,0,1,309.5.1a7.74,7.74,0,0,1,5.75,2.15A7.78,7.78,0,0,1,317.4,8,8.28,8.28,0,0,1,315.25,14,7.58,7.58,0,0,1,309.5,16.2Z"/><path class="cls-2" d="M386.6,68l.4.2v1.9H357V68.5l.1-.2a8.76,8.76,0,0,0,1.24-6.3A47.67,47.67,0,0,0,355,52.45a41.86,41.86,0,0,0-4.21-8,1.67,1.67,0,0,0-1.77-.65,1.25,1.25,0,0,0-1,1.35v5.9a26.8,26.8,0,0,0,.74,6.4,22.14,22.14,0,0,0,1.75,4.9,23.55,23.55,0,0,0,2.07,3.3,12.38,12.38,0,0,0,1.8,2l.64.6v1.8H326V68.3l.64-.65a16.35,16.35,0,0,0,1.47-2,20.33,20.33,0,0,0,1.82-3.4,26.93,26.93,0,0,0,1.43-4.85,29.91,29.91,0,0,0,.64-6.3l-.1-21a21.93,21.93,0,0,0,0-3.05q-.09-1.85-.15-3.9a22,22,0,0,0-.49-4.15,28.62,28.62,0,0,0-1-3.75,6.52,6.52,0,0,0-1.67-2.65,3.66,3.66,0,0,0-2.56-1V8.41a10.21,10.21,0,0,0,1.54-.15c.63-.1,1.81-.33,3.53-.7a32.58,32.58,0,0,0,4.83-1.4,23.24,23.24,0,0,0,4.63-2.46A12.54,12.54,0,0,0,344.21.1h3.38q-.09,35.05,0,38.95a1.37,1.37,0,0,0,2.39,1l12.14-10.72q8.76-8.71,14.33-9.81a7.76,7.76,0,0,1,4.78.45,5.18,5.18,0,0,1,2.83,2.8,10.2,10.2,0,0,1,.75,3.86,5.61,5.61,0,0,1-1.44,3.7,7.19,7.19,0,0,1-3.83,2.31,6.52,6.52,0,0,1-4-.3,13.64,13.64,0,0,1-3.34-1.81,5,5,0,0,0-3.28-.95,6.88,6.88,0,0,0-4.18,1.95L363,33.15l10.55,21.23Q379.54,64.49,386.6,68Z"/><path class="cls-2" d="M430.55,26.85A25.85,25.85,0,0,1,439,44.8a23.35,23.35,0,0,1-6.45,18A23,23,0,0,1,415,70.2a26,26,0,0,1-18.45-7.45,25.86,25.86,0,0,1-8.4-18,23.27,23.27,0,0,1,6.5-17.95A23.16,23.16,0,0,1,412.2,19.4,25.79,25.79,0,0,1,430.55,26.85ZM419.2,66.6q2.6-.41,3.2-6.7a44.13,44.13,0,0,0-1.3-14.3,54.66,54.66,0,0,0-6.2-16.25q-4.09-6.85-7.2-6.35-2.59.39-3.15,6.75A47.2,47.2,0,0,0,405.8,44.1,54.87,54.87,0,0,0,412,60.25Q416.1,67.09,419.2,66.6Z"/><path class="cls-2" d="M538.44,53.87q4.59,12,9.66,14a3,3,0,0,0,.9.2v2H516V68.2c.2-.14.46-.3.79-.5a8.47,8.47,0,0,0,1.53-1.45,8.82,8.82,0,0,0,1.62-2.65,11.37,11.37,0,0,0,.59-4.1,15.31,15.31,0,0,0-1.18-5.6l-1.77-4.8H494.52c-.72,1.87-1.28,3.3-1.67,4.3a18,18,0,0,0-1,5.6,11.45,11.45,0,0,0,.64,4.2,15.56,15.56,0,0,0,1.43,2.8,8.65,8.65,0,0,0,1.38,1.7l.69.5v1.9H478V68.2l.54-.3A13.09,13.09,0,0,0,480,66.7a16,16,0,0,0,2.16-2.55,47,47,0,0,0,2.7-4.65,58,58,0,0,0,3.09-7.2q2.85-7.5,15.7-43.7a18.93,18.93,0,0,0-2.26-4.85c-.78-1.1-1.37-1.65-1.76-1.65H499V.1h19.62Q535.86,46.66,538.44,53.87ZM495.3,46.1H517C515.86,42.78,509,22,506.59,16a.57.57,0,0,0-1.06,0Z"/><path class="cls-2" d="M581,1.9a7.49,7.49,0,0,0-.68.55,11.26,11.26,0,0,0-1.4,2.1,24.68,24.68,0,0,0-1.84,4.05,36.15,36.15,0,0,0-1.45,6.55A65.55,65.55,0,0,0,575,24.7V45.6a64.18,64.18,0,0,0,.64,9.55,34.33,34.33,0,0,0,1.52,6.6,31,31,0,0,0,1.77,4,8.44,8.44,0,0,0,1.48,2.1l.59.5v1.8H551V68.29a3.41,3.41,0,0,0,.64-.5,11,11,0,0,0,1.47-2.1,20.1,20.1,0,0,0,1.82-4,39.49,39.49,0,0,0,1.43-6.61,65.36,65.36,0,0,0,.64-9.62V24.63q0-16.11-5.21-22L551,1.9V.1h30Z"/></g></g></svg>