<svg version="1.1" id="Layer_1" xmlns="http://www.w3.org/2000/svg" xmlns:xlink="http://www.w3.org/1999/xlink" x="0px" y="0px"
	 width="100%" viewBox="0 0 134 134" enable-background="new 0 0 134 134" xml:space="preserve">
<path fill="#FFFEFE" opacity="1.000000" stroke="none" 
	d="
M76.000000,135.000000 
	C50.689846,135.000000 25.879696,135.000000 1.034772,135.000000 
	C1.034772,90.398232 1.034772,45.796429 1.034772,1.097314 
	C45.559906,1.097314 90.120094,1.097314 134.840149,1.097314 
	C134.840149,45.666210 134.840149,90.333054 134.840149,135.000000 
	C115.463509,135.000000 95.981758,135.000000 76.000000,135.000000 
M55.321259,111.181931 
	C56.355049,113.175591 57.388840,115.169243 58.858105,118.002716 
	C70.567848,90.484901 81.934311,63.773796 93.300766,37.062695 
	C93.909248,37.184258 94.517731,37.305820 95.126213,37.427383 
	C95.359795,39.071842 95.789360,40.715504 95.796043,42.360886 
	C95.850891,55.854557 95.930557,69.349586 95.794701,82.842110 
	C95.683319,93.903503 94.815819,104.835754 87.802864,114.182220 
	C87.497589,114.589058 87.694176,115.372459 87.649574,116.101669 
	C101.601204,116.101669 115.248405,116.101669 129.207748,116.101669 
	C128.861816,114.835793 128.717331,114.037895 128.429245,113.295738 
	C126.240898,107.658302 122.540207,102.143997 122.104416,96.380104 
	C120.952248,81.141159 120.945129,65.794556 121.003723,50.492798 
	C121.040787,40.814716 122.085007,31.173861 128.517258,23.104944 
	C129.024521,22.468615 128.815567,21.261343 128.982315,19.993811 
	C120.728401,19.993811 112.659340,20.723606 104.784035,19.800425 
	C95.878883,18.756519 91.433640,21.813429 88.718132,30.354820 
	C85.790794,39.562511 81.227852,48.250214 77.029312,57.973312 
	C75.511620,55.094856 74.407829,53.118076 73.410088,51.089138 
	C68.790459,41.695026 64.258797,32.256794 59.528549,22.919001 
	C58.908524,21.695034 57.333473,20.133551 56.186001,20.121389 
	C39.219536,19.941572 22.250578,19.997417 4.693207,19.997417 
	C5.207610,21.482607 5.519551,22.508270 5.913999,23.501156 
	C7.971606,28.680464 11.507529,33.756870 11.850546,39.042900 
	C12.915959,55.461369 13.046919,71.959267 12.989484,88.424431 
	C12.957405,97.620621 11.434073,106.682922 5.211576,114.182617 
	C4.899598,114.558624 5.171432,115.419022 5.171432,116.006554 
	C13.162720,116.006554 20.958561,116.006554 29.856031,116.006554 
	C22.792404,107.559303 20.959745,98.419235 20.857697,88.806046 
	C20.703934,74.321335 20.631399,59.835674 20.576000,45.350216 
	C20.572241,44.367306 21.000629,43.382740 21.508823,41.184216 
	C33.065506,65.054787 44.059387,87.762886 55.321259,111.181931 
z"/>
<path fill="#FF3705" opacity="1.000000" stroke="none" 
	d="
M55.187263,110.826462 
	C44.059387,87.762886 33.065506,65.054787 21.508823,41.184216 
	C21.000629,43.382740 20.572241,44.367306 20.576000,45.350216 
	C20.631399,59.835674 20.703934,74.321335 20.857697,88.806046 
	C20.959745,98.419235 22.792404,107.559303 29.856031,116.006554 
	C20.958561,116.006554 13.162720,116.006554 5.171432,116.006554 
	C5.171432,115.419022 4.899598,114.558624 5.211576,114.182617 
	C11.434073,106.682922 12.957405,97.620621 12.989484,88.424431 
	C13.046919,71.959267 12.915959,55.461369 11.850546,39.042900 
	C11.507529,33.756870 7.971606,28.680464 5.913999,23.501156 
	C5.519551,22.508270 5.207610,21.482607 4.693207,19.997417 
	C22.250578,19.997417 39.219536,19.941572 56.186001,20.121389 
	C57.333473,20.133551 58.908524,21.695034 59.528549,22.919001 
	C64.258797,32.256794 68.790459,41.695026 73.410088,51.089138 
	C74.407829,53.118076 75.511620,55.094856 77.029312,57.973312 
	C81.227852,48.250214 85.790794,39.562511 88.718132,30.354820 
	C91.433640,21.813429 95.878883,18.756519 104.784035,19.800425 
	C112.659340,20.723606 120.728401,19.993811 128.982315,19.993811 
	C128.815567,21.261343 129.024521,22.468615 128.517258,23.104944 
	C122.085007,31.173861 121.040787,40.814716 121.003723,50.492798 
	C120.945129,65.794556 120.952248,81.141159 122.104416,96.380104 
	C122.540207,102.143997 126.240898,107.658302 128.429245,113.295738 
	C128.717331,114.037895 128.861816,114.835793 129.207748,116.101669 
	C115.248405,116.101669 101.601204,116.101669 87.649574,116.101669 
	C87.694176,115.372459 87.497589,114.589058 87.802864,114.182220 
	C94.815819,104.835754 95.683319,93.903503 95.794701,82.842110 
	C95.930557,69.349586 95.850891,55.854557 95.796043,42.360886 
	C95.789360,40.715504 95.359795,39.071842 95.126213,37.427383 
	C94.517731,37.305820 93.909248,37.184258 93.300766,37.062695 
	C81.934311,63.773796 70.567848,90.484901 58.858105,118.002716 
	C57.388840,115.169243 56.355049,113.175591 55.187263,110.826462 
z"/>
</svg>