<svg xmlns="http://www.w3.org/2000/svg" xmlns:xlink="http://www.w3.org/1999/xlink" width="200" zoomAndPan="magnify" viewBox="0 0 150 149.999998" height="200" preserveAspectRatio="xMidYMid meet" version="1.0"><defs><clipPath id="a33fc2c8cb"><path d="M 3.929688 80 L 133 80 L 133 113 L 3.929688 113 Z M 3.929688 80 " clip-rule="nonzero"/></clipPath><clipPath id="51b232cb79"><path d="M 18 53 L 147.179688 53 L 147.179688 86 L 18 86 Z M 18 53 " clip-rule="nonzero"/></clipPath><clipPath id="a75e22e11f"><path d="M 3.929688 11 L 133 11 L 133 39 L 3.929688 39 Z M 3.929688 11 " clip-rule="nonzero"/></clipPath><clipPath id="87cd89489c"><path d="M 3.929688 23 L 133 23 L 133 56 L 3.929688 56 Z M 3.929688 23 " clip-rule="nonzero"/></clipPath><clipPath id="c36dfb70b5"><path d="M 3.929688 72 L 133 72 L 133 96 L 3.929688 96 Z M 3.929688 72 " clip-rule="nonzero"/></clipPath><clipPath id="4c112f1368"><path d="M 18 44 L 147.179688 44 L 147.179688 68 L 18 68 Z M 18 44 " clip-rule="nonzero"/></clipPath></defs><rect x="-15" width="180" fill="#ffffff" y="-15" height="179.999997" fill-opacity="1"/><rect x="-15" width="180" fill="#ffffff" y="-15" height="179.999997" fill-opacity="1"/><path fill="#e4af18" d="M 75.554688 122.238281 C 40.085938 122.238281 11.335938 114.929688 11.335938 107.441406 L 11.335938 124.695312 C 11.359375 132.183594 40.097656 139.503906 75.554688 139.503906 C 111.007812 139.503906 139.746094 132.183594 139.769531 124.695312 L 139.769531 107.441406 C 139.769531 114.929688 111.019531 122.238281 75.554688 122.238281 " fill-opacity="1" fill-rule="nonzero"/><g clip-path="url(#a33fc2c8cb)"><path fill="#f4bf1a" d="M 68.148438 95.113281 C 32.679688 95.113281 3.929688 87.816406 3.929688 80.316406 L 3.929688 97.570312 C 3.953125 105.070312 32.691406 112.378906 68.148438 112.378906 C 103.605469 112.378906 132.34375 105.070312 132.367188 97.570312 L 132.367188 80.316406 C 132.367188 87.816406 103.617188 95.113281 68.148438 95.113281 " fill-opacity="1" fill-rule="nonzero"/></g><g clip-path="url(#51b232cb79)"><path fill="#e4af18" d="M 82.96875 67.984375 C 47.503906 67.984375 18.753906 60.691406 18.753906 53.214844 L 18.753906 70.441406 C 18.765625 77.929688 47.515625 85.25 82.96875 85.25 C 118.425781 85.25 147.164062 77.929688 147.175781 70.441406 L 147.175781 53.214844 C 147.175781 60.691406 118.425781 67.984375 82.96875 67.984375 " fill-opacity="1" fill-rule="nonzero"/></g><g clip-path="url(#a75e22e11f)"><path fill="#ffd949" d="M 132.367188 23.933594 C 132.367188 31.421875 103.617188 38.417969 68.148438 38.417969 C 32.679688 38.417969 3.929688 31.421875 3.929688 23.933594 C 3.929688 16.429688 32.679688 11.277344 68.148438 11.277344 C 103.617188 11.277344 132.367188 16.429688 132.367188 23.933594 " fill-opacity="1" fill-rule="nonzero"/></g><g clip-path="url(#87cd89489c)"><path fill="#f4bf1a" d="M 68.148438 38.417969 C 32.679688 38.417969 3.929688 31.109375 3.929688 23.605469 L 3.929688 40.859375 C 3.953125 48.347656 32.691406 55.65625 68.148438 55.65625 C 103.605469 55.65625 132.34375 48.347656 132.367188 40.859375 L 132.367188 23.605469 C 132.367188 31.109375 103.617188 38.417969 68.148438 38.417969 " fill-opacity="1" fill-rule="nonzero"/></g><path fill="#dca815" d="M 13.808594 31.191406 L 13.808594 48.445312 C 15.316406 48.988281 16.957031 49.515625 18.753906 50.023438 L 18.753906 32.792969 C 16.957031 32.277344 15.316406 31.734375 13.808594 31.191406 " fill-opacity="1" fill-rule="nonzero"/><path fill="#dca815" d="M 117.546875 32.792969 L 117.546875 50.023438 C 119.332031 49.515625 120.980469 48.988281 122.476562 48.445312 L 122.476562 31.191406 C 120.980469 31.734375 119.332031 32.277344 117.546875 32.792969 " fill-opacity="1" fill-rule="nonzero"/><path fill="#dca815" d="M 26.15625 34.574219 L 26.15625 51.816406 C 27.738281 52.152344 29.390625 52.453125 31.101562 52.753906 L 31.101562 35.503906 C 29.390625 35.203125 27.738281 34.902344 26.15625 34.574219 " fill-opacity="1" fill-rule="nonzero"/><path fill="#dca815" d="M 105.195312 35.503906 L 105.195312 52.753906 C 106.910156 52.453125 108.546875 52.152344 110.128906 51.816406 L 110.128906 34.574219 C 108.546875 34.902344 106.910156 35.203125 105.195312 35.503906 " fill-opacity="1" fill-rule="nonzero"/><path fill="#dca815" d="M 38.507812 36.597656 L 38.507812 53.863281 C 40.121094 54.054688 41.761719 54.25 43.449219 54.429688 L 43.449219 37.175781 C 41.761719 36.996094 40.121094 36.804688 38.507812 36.597656 " fill-opacity="1" fill-rule="nonzero"/><path fill="#dca815" d="M 92.847656 37.175781 L 92.847656 54.429688 C 94.535156 54.25 96.175781 54.054688 97.78125 53.863281 L 97.78125 36.597656 C 96.175781 36.804688 94.535156 36.996094 92.847656 37.175781 " fill-opacity="1" fill-rule="nonzero"/><path fill="#dca815" d="M 50.855469 37.800781 L 50.855469 55.066406 C 52.484375 55.175781 54.125 55.285156 55.800781 55.367188 L 55.800781 38.101562 C 54.125 38.03125 52.484375 37.921875 50.855469 37.800781 " fill-opacity="1" fill-rule="nonzero"/><path fill="#dca815" d="M 80.496094 38.101562 L 80.496094 55.367188 C 82.164062 55.285156 83.8125 55.175781 85.429688 55.066406 L 85.429688 37.800781 C 83.8125 37.921875 82.164062 38.03125 80.496094 38.101562 " fill-opacity="1" fill-rule="nonzero"/><path fill="#dca815" d="M 68.148438 38.417969 C 67.316406 38.417969 66.496094 38.390625 65.675781 38.390625 L 65.675781 55.644531 C 66.496094 55.65625 67.316406 55.65625 68.148438 55.65625 C 68.96875 55.65625 69.800781 55.65625 70.621094 55.644531 L 70.621094 38.390625 C 69.800781 38.390625 68.96875 38.417969 68.148438 38.417969 " fill-opacity="1" fill-rule="nonzero"/><path fill="#c49214" d="M 28.628906 60.785156 L 28.628906 78.027344 C 30.136719 78.582031 31.777344 79.109375 33.574219 79.617188 L 33.574219 62.363281 C 31.777344 61.859375 30.136719 61.328125 28.628906 60.785156 " fill-opacity="1" fill-rule="nonzero"/><path fill="#c49214" d="M 132.367188 62.363281 L 132.367188 79.617188 C 134.152344 79.109375 135.804688 78.582031 137.300781 78.027344 L 137.300781 60.785156 C 135.804688 61.328125 134.152344 61.859375 132.367188 62.363281 " fill-opacity="1" fill-rule="nonzero"/><path fill="#c49214" d="M 40.976562 64.15625 L 40.976562 81.410156 C 42.558594 81.734375 44.210938 82.050781 45.921875 82.351562 L 45.921875 65.085938 C 44.210938 64.796875 42.558594 64.484375 40.976562 64.15625 " fill-opacity="1" fill-rule="nonzero"/><path fill="#c49214" d="M 120.015625 65.085938 L 120.015625 82.363281 C 121.730469 82.050781 123.371094 81.734375 124.949219 81.410156 L 124.949219 64.15625 C 123.371094 64.484375 121.730469 64.796875 120.015625 65.085938 " fill-opacity="1" fill-rule="nonzero"/><path fill="#c49214" d="M 53.328125 66.191406 L 53.328125 83.445312 C 54.945312 83.648438 56.582031 83.84375 58.273438 84.035156 L 58.273438 66.757812 C 56.582031 66.589844 54.945312 66.398438 53.328125 66.191406 " fill-opacity="1" fill-rule="nonzero"/><path fill="#c49214" d="M 107.667969 66.757812 L 107.667969 84.035156 C 109.34375 83.84375 110.996094 83.648438 112.601562 83.445312 L 112.601562 66.191406 C 110.996094 66.398438 109.34375 66.589844 107.667969 66.757812 " fill-opacity="1" fill-rule="nonzero"/><path fill="#c49214" d="M 65.675781 67.394531 L 65.675781 84.660156 C 67.304688 84.769531 68.945312 84.867188 70.621094 84.949219 L 70.621094 67.699219 C 68.945312 67.613281 67.304688 67.503906 65.675781 67.394531 " fill-opacity="1" fill-rule="nonzero"/><path fill="#c49214" d="M 95.320312 67.699219 L 95.320312 84.949219 C 96.984375 84.867188 98.636719 84.769531 100.25 84.660156 L 100.25 67.394531 C 98.636719 67.503906 96.984375 67.613281 95.320312 67.699219 " fill-opacity="1" fill-rule="nonzero"/><path fill="#c49214" d="M 82.96875 67.984375 C 82.136719 67.984375 81.316406 67.984375 80.496094 67.972656 L 80.496094 85.238281 C 81.316406 85.238281 82.136719 85.25 82.96875 85.25 C 83.789062 85.25 84.609375 85.238281 85.429688 85.238281 L 85.429688 67.972656 C 84.609375 67.984375 83.789062 67.984375 82.96875 67.984375 " fill-opacity="1" fill-rule="nonzero"/><path fill="#dca815" d="M 13.808594 87.898438 L 13.808594 105.152344 C 15.316406 105.695312 16.957031 106.238281 18.753906 106.742188 L 18.753906 89.488281 C 16.957031 88.984375 15.316406 88.453125 13.808594 87.898438 " fill-opacity="1" fill-rule="nonzero"/><path fill="#dca815" d="M 117.546875 89.488281 L 117.546875 106.742188 C 119.332031 106.25 120.980469 105.695312 122.476562 105.152344 L 122.476562 87.898438 C 120.980469 88.453125 119.332031 88.984375 117.546875 89.488281 " fill-opacity="1" fill-rule="nonzero"/><path fill="#dca815" d="M 26.15625 91.285156 L 26.15625 108.550781 C 27.738281 108.863281 29.390625 109.175781 31.101562 109.464844 L 31.101562 92.210938 C 29.390625 91.921875 27.738281 91.621094 26.15625 91.285156 " fill-opacity="1" fill-rule="nonzero"/><path fill="#dca815" d="M 105.195312 92.210938 L 105.195312 109.464844 C 106.910156 109.175781 108.546875 108.863281 110.128906 108.550781 L 110.128906 91.285156 C 108.546875 91.621094 106.910156 91.921875 105.195312 92.210938 " fill-opacity="1" fill-rule="nonzero"/><path fill="#dca815" d="M 38.507812 93.316406 L 38.507812 110.570312 C 40.121094 110.777344 41.761719 110.96875 43.449219 111.136719 L 43.449219 93.894531 C 41.761719 93.714844 40.121094 93.535156 38.507812 93.316406 " fill-opacity="1" fill-rule="nonzero"/><path fill="#dca815" d="M 92.847656 93.894531 L 92.847656 111.136719 C 94.535156 110.96875 96.175781 110.777344 97.78125 110.570312 L 97.78125 93.316406 C 96.175781 93.535156 94.535156 93.714844 92.847656 93.894531 " fill-opacity="1" fill-rule="nonzero"/><path fill="#dca815" d="M 50.855469 94.523438 L 50.855469 111.777344 C 52.484375 111.894531 54.125 111.992188 55.800781 112.078125 L 55.800781 94.824219 C 54.125 94.726562 52.484375 94.628906 50.855469 94.523438 " fill-opacity="1" fill-rule="nonzero"/><path fill="#dca815" d="M 80.496094 94.824219 L 80.496094 112.078125 C 82.164062 111.992188 83.8125 111.894531 85.429688 111.777344 L 85.429688 94.523438 C 83.8125 94.628906 82.164062 94.726562 80.496094 94.824219 " fill-opacity="1" fill-rule="nonzero"/><path fill="#dca815" d="M 68.148438 95.113281 C 67.316406 95.113281 66.496094 95.113281 65.675781 95.101562 L 65.675781 112.367188 C 66.496094 112.367188 67.316406 112.378906 68.148438 112.378906 C 68.96875 112.378906 69.800781 112.367188 70.621094 112.367188 L 70.621094 95.101562 C 69.800781 95.113281 68.96875 95.113281 68.148438 95.113281 " fill-opacity="1" fill-rule="nonzero"/><path fill="#c49214" d="M 21.222656 115.027344 L 21.222656 132.265625 C 22.71875 132.820312 24.371094 133.351562 26.15625 133.867188 L 26.15625 116.617188 C 24.371094 116.121094 22.71875 115.566406 21.222656 115.027344 " fill-opacity="1" fill-rule="nonzero"/><path fill="#c49214" d="M 124.949219 116.617188 L 124.949219 133.867188 C 126.746094 133.351562 128.386719 132.820312 129.894531 132.265625 L 129.894531 115.027344 C 128.386719 115.582031 126.746094 116.121094 124.949219 116.617188 " fill-opacity="1" fill-rule="nonzero"/><path fill="#c49214" d="M 33.574219 118.410156 L 33.574219 135.664062 C 35.152344 135.988281 36.792969 136.300781 38.507812 136.589844 L 38.507812 119.335938 C 36.792969 119.046875 35.152344 118.734375 33.574219 118.410156 " fill-opacity="1" fill-rule="nonzero"/><path fill="#c49214" d="M 112.601562 119.335938 L 112.601562 136.589844 C 114.3125 136.300781 115.964844 135.988281 117.546875 135.664062 L 117.546875 118.410156 C 115.964844 118.734375 114.3125 119.046875 112.601562 119.335938 " fill-opacity="1" fill-rule="nonzero"/><path fill="#c49214" d="M 45.921875 120.433594 L 45.921875 137.710938 C 47.527344 137.902344 49.167969 138.09375 50.855469 138.261719 L 50.855469 121.011719 C 49.167969 120.828125 47.527344 120.636719 45.921875 120.433594 " fill-opacity="1" fill-rule="nonzero"/><path fill="#c49214" d="M 100.25 121.011719 L 100.25 138.261719 C 101.941406 138.09375 103.582031 137.902344 105.195312 137.710938 L 105.195312 120.433594 C 103.582031 120.648438 101.941406 120.839844 100.25 121.011719 " fill-opacity="1" fill-rule="nonzero"/><path fill="#c49214" d="M 58.273438 121.648438 L 58.273438 138.902344 C 59.886719 139.011719 61.539062 139.117188 63.203125 139.203125 L 63.203125 121.9375 C 61.539062 121.851562 59.886719 121.757812 58.273438 121.648438 " fill-opacity="1" fill-rule="nonzero"/><path fill="#c49214" d="M 87.902344 121.9375 L 87.902344 139.203125 C 89.578125 139.117188 91.21875 139.011719 92.847656 138.902344 L 92.847656 121.648438 C 91.21875 121.757812 89.578125 121.851562 87.902344 121.9375 " fill-opacity="1" fill-rule="nonzero"/><path fill="#c49214" d="M 75.554688 122.238281 C 74.734375 122.238281 73.902344 122.226562 73.082031 122.226562 L 73.082031 139.480469 C 73.902344 139.503906 74.734375 139.503906 75.554688 139.503906 C 76.386719 139.503906 77.207031 139.503906 78.027344 139.480469 L 78.027344 122.226562 C 77.207031 122.226562 76.386719 122.238281 75.554688 122.238281 " fill-opacity="1" fill-rule="nonzero"/><path fill="#fcc62d" d="M 130.414062 100.964844 C 123.40625 107.128906 98.191406 112.378906 68.148438 112.378906 C 44.65625 112.378906 24.128906 109.164062 12.925781 104.816406 C 11.902344 105.753906 11.335938 106.730469 11.335938 107.777344 C 11.335938 115.253906 40.085938 122.238281 75.554688 122.238281 C 111.019531 122.238281 139.769531 115.253906 139.769531 107.777344 C 139.769531 105.175781 136.347656 102.878906 130.414062 100.964844 " fill-opacity="1" fill-rule="nonzero"/><g clip-path="url(#c36dfb70b5)"><path fill="#ffd949" d="M 82.96875 85.25 C 50.335938 85.25 23.40625 79.050781 19.308594 72.222656 C 9.730469 74.402344 3.929688 77.28125 3.929688 80.640625 C 3.929688 88.140625 32.679688 95.113281 68.148438 95.113281 C 103.617188 95.113281 132.367188 88.140625 132.367188 80.640625 C 132.367188 80.316406 132.28125 79.988281 132.171875 79.675781 C 120.402344 82.976562 102.722656 85.25 82.96875 85.25 " fill-opacity="1" fill-rule="nonzero"/></g><g clip-path="url(#4c112f1368)"><path fill="#fcc62d" d="M 129.871094 44.6875 C 122.1875 50.648438 97.476562 55.65625 68.148438 55.65625 C 49.203125 55.65625 32.1875 53.574219 20.429688 50.480469 C 19.34375 51.445312 18.753906 52.453125 18.753906 53.515625 C 18.753906 61.003906 47.503906 67.984375 82.96875 67.984375 C 118.425781 67.984375 147.175781 61.003906 147.175781 53.515625 C 147.175781 49.9375 140.601562 46.90625 129.871094 44.6875 " fill-opacity="1" fill-rule="nonzero"/></g></svg>