<svg xmlns="http://www.w3.org/2000/svg" xmlns:xlink="http://www.w3.org/1999/xlink" width="200" zoomAndPan="magnify" viewBox="0 0 150 149.999998" height="200" preserveAspectRatio="xMidYMid meet" version="1.0"><defs><clipPath id="385ae60d04"><path d="M 6.589844 6.730469 L 143.089844 6.730469 L 143.089844 143.230469 L 6.589844 143.230469 Z M 6.589844 6.730469 " clip-rule="nonzero"/></clipPath></defs><rect x="-15" width="180" fill="#ffffff" y="-15" height="179.999997" fill-opacity="1"/><rect x="-15" width="180" fill="#ffffff" y="-15" height="179.999997" fill-opacity="1"/><path fill="#f4f4e6" d="M 140.8125 140.953125 L 8.863281 140.953125 L 8.863281 36.304688 L 36.164062 36.304688 L 36.164062 9.003906 L 140.8125 9.003906 L 140.8125 140.953125 " fill-opacity="1" fill-rule="nonzero"/><path fill="#59d2e2" d="M 36.164062 18.105469 L 36.164062 36.304688 L 17.964844 36.304688 L 17.964844 122.753906 L 131.714844 122.753906 L 131.714844 18.105469 L 36.164062 18.105469 " fill-opacity="1" fill-rule="nonzero"/><path fill="#dddccc" d="M 8.863281 36.304688 L 36.164062 36.304688 L 36.164062 9.003906 Z M 8.863281 36.304688 " fill-opacity="1" fill-rule="nonzero"/><path fill="#32b1cc" d="M 118.0625 102.277344 C 107.445312 102.277344 105.933594 95.453125 95.3125 95.453125 C 84.703125 95.453125 85.441406 102.277344 74.820312 102.277344 C 64.210938 102.277344 64.984375 95.453125 54.363281 95.453125 C 43.753906 95.453125 42.222656 102.277344 31.613281 102.277344 C 25.003906 102.277344 21.917969 99.628906 17.964844 97.632812 L 17.964844 122.753906 L 131.714844 122.753906 L 131.714844 97.632812 C 127.757812 99.628906 124.683594 102.277344 118.0625 102.277344 " fill-opacity="1" fill-rule="nonzero"/><path fill="#ffffff" d="M 131.714844 43.128906 C 131.714844 43.128906 131.714844 41.46875 131.714844 40.855469 C 131.714844 36.304688 128.824219 34.027344 124.890625 34.027344 C 124.097656 34.027344 124.890625 34.027344 122.613281 34.027344 C 121.261719 29.699219 118.0625 27.203125 111.238281 27.203125 C 106.171875 27.203125 100.957031 29.328125 99.863281 34.027344 C 97.589844 34.027344 99.011719 34.027344 97.589844 34.027344 C 93.652344 34.027344 90.765625 36.945312 90.765625 40.855469 C 90.765625 41.46875 90.765625 40.855469 90.765625 43.128906 L 131.714844 43.128906 " fill-opacity="1" fill-rule="nonzero"/><path fill="#ffffff" d="M 68.015625 74.980469 C 68.015625 74.980469 68.015625 73.316406 68.015625 72.703125 C 68.015625 68.152344 65.125 65.878906 61.1875 65.878906 C 60.398438 65.878906 61.1875 65.878906 58.914062 65.878906 C 57.5625 61.550781 54.363281 59.054688 47.539062 59.054688 C 42.472656 59.054688 37.257812 61.179688 36.164062 65.878906 C 33.890625 65.878906 35.3125 65.878906 33.890625 65.878906 C 29.953125 65.878906 27.0625 68.792969 27.0625 72.703125 C 27.0625 73.316406 27.0625 72.703125 27.0625 74.980469 L 68.015625 74.980469 " fill-opacity="1" fill-rule="nonzero"/><path fill="#fcf05a" d="M 90.765625 43.128906 C 90.765625 51.925781 83.636719 59.054688 74.839844 59.054688 C 66.039062 59.054688 58.914062 51.925781 58.914062 43.128906 C 58.914062 34.332031 66.039062 27.203125 74.839844 27.203125 C 83.636719 27.203125 90.765625 34.332031 90.765625 43.128906 " fill-opacity="1" fill-rule="nonzero"/><path fill="#ffffff" d="M 20.238281 134.128906 L 15.6875 134.128906 L 15.6875 129.578125 L 20.238281 129.578125 L 20.238281 134.128906 " fill-opacity="1" fill-rule="nonzero"/><path fill="#ffffff" d="M 140.8125 134.128906 L 108.964844 134.128906 L 108.964844 129.578125 L 140.8125 129.578125 L 140.8125 134.128906 " fill-opacity="1" fill-rule="nonzero"/><g clip-path="url(#385ae60d04)"><path fill="#000000" d="M 11.140625 138.679688 L 11.140625 38.578125 L 15.6875 38.578125 L 15.6875 125.027344 L 133.988281 125.027344 L 133.988281 15.828125 L 38.4375 15.828125 L 38.4375 11.277344 L 138.539062 11.277344 L 138.539062 129.578125 L 108.964844 129.578125 L 108.964844 134.128906 L 138.539062 134.128906 L 138.539062 138.679688 Z M 33.890625 34.027344 L 14.355469 34.027344 L 33.890625 14.496094 Z M 20.238281 101.46875 C 23.074219 103.027344 26.40625 104.554688 31.613281 104.554688 C 37.515625 104.554688 41.015625 102.589844 44.101562 100.847656 C 47.078125 99.175781 49.652344 97.730469 54.363281 97.730469 C 58.957031 97.730469 60.976562 99.125 63.296875 100.742188 C 65.882812 102.527344 68.804688 104.554688 74.820312 104.554688 C 80.835938 104.554688 83.769531 102.527344 86.363281 100.742188 C 88.703125 99.125 90.71875 97.730469 95.3125 97.730469 C 100.03125 97.730469 102.601562 99.175781 105.578125 100.847656 C 108.660156 102.589844 112.152344 104.554688 118.0625 104.554688 C 123.269531 104.554688 126.605469 103.027344 129.4375 101.46875 L 129.4375 120.480469 L 20.238281 120.480469 Z M 88.488281 43.128906 C 88.488281 50.65625 82.367188 56.777344 74.839844 56.777344 C 67.3125 56.777344 61.1875 50.65625 61.1875 43.128906 C 61.1875 35.601562 67.3125 29.480469 74.839844 29.480469 C 82.367188 29.480469 88.488281 35.601562 88.488281 43.128906 Z M 129.4375 40.855469 L 93.039062 40.855469 C 93.039062 38.179688 94.914062 36.304688 97.589844 36.304688 L 99.863281 36.304688 C 100.921875 36.304688 101.835938 35.574219 102.078125 34.542969 C 102.949219 30.804688 107.558594 29.480469 111.238281 29.480469 C 117.894531 29.480469 119.59375 31.992188 120.4375 34.703125 C 120.738281 35.65625 121.617188 36.304688 122.613281 36.304688 L 124.890625 36.304688 C 126.96875 36.304688 129.4375 37.09375 129.4375 40.855469 Z M 129.4375 32.792969 C 128.140625 32.144531 126.621094 31.753906 124.890625 31.753906 L 124.1875 31.753906 C 122.117188 27.167969 117.859375 24.929688 111.238281 24.929688 C 105.027344 24.929688 100.140625 27.550781 98.246094 31.753906 L 97.589844 31.753906 C 94.878906 31.753906 92.542969 32.839844 90.90625 34.589844 C 87.839844 28.847656 81.789062 24.929688 74.839844 24.929688 C 64.804688 24.929688 56.640625 33.097656 56.640625 43.128906 C 56.640625 53.160156 64.804688 61.328125 74.839844 61.328125 C 84.097656 61.328125 91.757812 54.371094 92.878906 45.402344 L 129.4375 45.402344 L 129.4375 96.28125 C 129.066406 96.484375 128.691406 96.679688 128.328125 96.882812 C 125.351562 98.554688 122.78125 100.003906 118.0625 100.003906 C 113.34375 100.003906 110.777344 98.554688 107.800781 96.882812 C 104.714844 95.144531 101.222656 93.179688 95.3125 93.179688 C 89.296875 93.179688 86.363281 95.207031 83.777344 96.992188 C 81.441406 98.609375 79.425781 100.003906 74.820312 100.003906 C 70.226562 100.003906 68.21875 98.609375 65.890625 96.992188 C 63.3125 95.207031 60.390625 93.179688 54.363281 93.179688 C 48.464844 93.179688 44.960938 95.144531 41.878906 96.882812 C 38.902344 98.554688 36.324219 100.003906 31.613281 100.003906 C 26.902344 100.003906 24.328125 98.554688 21.351562 96.882812 C 20.984375 96.679688 20.613281 96.484375 20.238281 96.28125 L 20.238281 38.578125 L 38.4375 38.578125 L 38.4375 20.378906 L 129.4375 20.378906 Z M 140.8125 6.730469 L 36.164062 6.730469 C 35.558594 6.730469 34.980469 6.96875 34.554688 7.394531 L 7.253906 34.695312 C 6.828125 35.121094 6.589844 35.699219 6.589844 36.304688 L 6.589844 140.953125 C 6.589844 142.207031 7.609375 143.230469 8.863281 143.230469 L 140.8125 143.230469 C 142.066406 143.230469 143.089844 142.207031 143.089844 140.953125 L 143.089844 9.003906 C 143.089844 7.75 142.066406 6.730469 140.8125 6.730469 " fill-opacity="1" fill-rule="nonzero"/></g><path fill="#000000" d="M 57.765625 111.378906 C 55.695312 111.378906 54.753906 110.960938 53.574219 110.4375 C 52.167969 109.816406 50.570312 109.105469 47.53125 109.105469 C 44.480469 109.105469 42.890625 109.816406 41.488281 110.4375 C 40.304688 110.960938 39.363281 111.378906 37.292969 111.378906 C 35.222656 111.378906 34.28125 110.960938 33.097656 110.4375 C 31.695312 109.816406 30.101562 109.105469 27.0625 109.105469 L 27.0625 113.652344 C 29.132812 113.652344 30.066406 114.070312 31.25 114.597656 C 32.664062 115.21875 34.253906 115.929688 37.292969 115.929688 C 40.332031 115.929688 41.921875 115.21875 43.335938 114.597656 C 44.515625 114.070312 45.449219 113.652344 47.53125 113.652344 C 49.601562 113.652344 50.542969 114.070312 51.722656 114.597656 C 53.128906 115.21875 54.726562 115.929688 57.765625 115.929688 C 60.816406 115.929688 62.40625 115.21875 63.820312 114.597656 C 65 114.070312 65.933594 113.652344 68.015625 113.652344 L 68.015625 109.105469 C 64.964844 109.105469 63.375 109.816406 61.972656 110.4375 C 60.78125 110.960938 59.847656 111.378906 57.765625 111.378906 " fill-opacity="1" fill-rule="nonzero"/><path fill="#000000" d="M 110.09375 111.378906 C 108.023438 111.378906 107.078125 110.960938 105.898438 110.4375 C 104.492188 109.816406 102.894531 109.105469 99.855469 109.105469 C 96.808594 109.105469 95.214844 109.816406 93.8125 110.4375 C 92.628906 110.960938 91.6875 111.378906 89.617188 111.378906 C 87.546875 111.378906 86.605469 110.960938 85.421875 110.4375 C 84.019531 109.816406 82.429688 109.105469 79.390625 109.105469 L 79.390625 113.652344 C 81.460938 113.652344 82.390625 114.070312 83.574219 114.597656 C 84.988281 115.21875 86.578125 115.929688 89.617188 115.929688 C 92.65625 115.929688 94.246094 115.21875 95.660156 114.597656 C 96.84375 114.070312 97.777344 113.652344 99.855469 113.652344 C 101.925781 113.652344 102.867188 114.070312 104.050781 114.597656 C 105.453125 115.21875 107.054688 115.929688 110.09375 115.929688 C 113.140625 115.929688 114.730469 115.21875 116.144531 114.597656 C 117.328125 114.070312 118.257812 113.652344 120.339844 113.652344 L 120.339844 109.105469 C 117.289062 109.105469 115.699219 109.816406 114.296875 110.4375 C 113.105469 110.960938 112.171875 111.378906 110.09375 111.378906 " fill-opacity="1" fill-rule="nonzero"/><path fill="#000000" d="M 38.375 66.394531 C 39.246094 62.652344 43.859375 61.328125 47.539062 61.328125 C 54.195312 61.328125 55.890625 63.84375 56.738281 66.554688 C 57.039062 67.503906 57.917969 68.152344 58.914062 68.152344 L 61.1875 68.152344 C 63.269531 68.152344 65.738281 68.945312 65.738281 72.703125 L 29.339844 72.703125 C 29.339844 70.027344 31.214844 68.152344 33.890625 68.152344 L 36.164062 68.152344 C 37.222656 68.152344 38.136719 67.425781 38.375 66.394531 Z M 34.546875 63.605469 L 33.890625 63.605469 C 28.699219 63.605469 24.789062 67.515625 24.789062 72.703125 L 24.789062 74.980469 C 24.789062 76.230469 25.8125 77.253906 27.0625 77.253906 L 68.015625 77.253906 C 69.265625 77.253906 70.289062 76.230469 70.289062 74.980469 L 70.289062 72.703125 C 70.289062 67.175781 66.714844 63.605469 61.1875 63.605469 L 60.488281 63.605469 C 58.417969 59.019531 54.160156 56.777344 47.539062 56.777344 C 41.328125 56.777344 36.4375 59.402344 34.546875 63.605469 " fill-opacity="1" fill-rule="nonzero"/><path fill="#000000" d="M 74.839844 34.027344 L 74.839844 38.578125 C 77.34375 38.578125 79.390625 40.621094 79.390625 43.128906 L 83.9375 43.128906 C 83.9375 38.109375 79.859375 34.027344 74.839844 34.027344 " fill-opacity="1" fill-rule="nonzero"/><path fill="#000000" d="M 15.6875 134.128906 L 20.238281 134.128906 L 20.238281 129.578125 L 15.6875 129.578125 L 15.6875 134.128906 " fill-opacity="1" fill-rule="nonzero"/></svg>